<svg fill="none" height="1801" viewBox="0 0 1200 1801" width="1200" xmlns="http://www.w3.org/2000/svg" xmlns:xlink="http://www.w3.org/1999/xlink"><linearGradient id="lg1"><stop offset=".04" stop-color="#3d7cff"/><stop offset="1" stop-color="#3d7cff"/></linearGradient><linearGradient id="paint0_linear_11_468" gradientUnits="userSpaceOnUse" x1="1006.68" x2="1083.24" xlink:href="#lg1" y1="518.359" y2="518.359"/><linearGradient id="paint1_linear_11_468" gradientUnits="userSpaceOnUse" x1="895.94" x2="899.94" xlink:href="#lg1" y1="825.57" y2="825.57"/><linearGradient id="paint2_linear_11_468" gradientUnits="userSpaceOnUse" x1="1000.44" x2="1004.44" xlink:href="#lg1" y1="825.57" y2="825.57"/><linearGradient id="paint3_linear_11_468" gradientUnits="userSpaceOnUse" x1="895.94" x2="899.94" xlink:href="#lg1" y1="1205.57" y2="1205.57"/><linearGradient id="paint4_linear_11_468" gradientUnits="userSpaceOnUse" x1="1000.44" x2="1004.44" xlink:href="#lg1" y1="1205.57" y2="1205.57"/><linearGradient id="paint5_linear_11_468" gradientUnits="userSpaceOnUse" x1="441.08" x2="529.07" xlink:href="#lg1" y1="1678.61" y2="1678.61"/><path d="M379.96 284.07H104.92C86.9818 284.07 72.44 298.612 72.44 316.55V1542.59C72.44 1560.53 86.9818 1575.07 104.92 1575.07H379.96C397.898 1575.07 412.44 1560.53 412.44 1542.59V316.55C412.44 298.612 397.898 284.07 379.96 284.07Z" fill="#f6f6f6"/><path d="M1089.96 284.07H814.92C796.982 284.07 782.44 298.612 782.44 316.55V1542.59C782.44 1560.53 796.982 1575.07 814.92 1575.07H1089.96C1107.9 1575.07 1122.44 1560.53 1122.44 1542.59V316.55C1122.44 298.612 1107.9 284.07 1089.96 284.07Z" fill="#e9f0ff"/><path d="M734.96 284.07H459.92C441.982 284.07 427.44 298.612 427.44 316.55V1542.59C427.44 1560.53 441.982 1575.07 459.92 1575.07H734.96C752.898 1575.07 767.44 1560.53 767.44 1542.59V316.55C767.44 298.612 752.898 284.07 734.96 284.07Z" fill="#f6f6f6"/><path d="M911.05 533.311V579.261H948.74V587.881H908.18C905.01 587.881 902.44 585.311 902.44 582.141V530.451C902.44 527.281 905.01 524.711 908.18 524.711H988.95C992.12 524.711 994.69 527.281 994.69 530.451V533.321H911.05V533.311Z" fill="#3c3e45"/><path d="M948.75 593.611H906.75C904.37 593.611 902.44 595.541 902.44 597.921 902.44 600.301 904.37 602.231 906.75 602.231H948.75V593.611Z" fill="#3c3e45"/><path clip-rule="evenodd" d="M960.23 544.792V599.352H991.82V544.792H960.23ZM953.27 537.832C954.44 536.662 955.95 536.172 957.36 536.172H994.69C996.1 536.172 997.61 536.662 998.78 537.832 999.95 539.002 1000.44 540.512 1000.44 541.922V602.232C1000.44 603.642 999.95 605.152 998.78 606.322 997.61 607.492 996.1 607.982 994.69 607.982H957.36C955.95 607.982 954.44 607.492 953.27 606.322 952.1 605.152 951.61 603.642 951.61 602.232V541.922C951.61 540.512 952.1 539.002 953.27 537.832Z" fill="#3c3e45" fill-rule="evenodd"/><path d="M981.77 593.61H970.28C967.9 593.61 965.97 591.68 965.97 589.3 965.97 586.92 967.9 584.99 970.28 584.99H981.77C984.15 584.99 986.08 586.92 986.08 589.3 986.08 591.68 984.15 593.61 981.77 593.61Z" fill="#3c3e45"/><path d="M597.6 651.721C548.94 651.721 509.35 612.131 509.35 563.471 509.35 514.811 548.94 475.221 597.6 475.221 646.26 475.221 685.85 514.811 685.85 563.471 685.85 612.131 646.26 651.721 597.6 651.721ZM597.6 476.721C549.77 476.721 510.85 515.641 510.85 563.471 510.85 611.301 549.77 650.221 597.6 650.221 645.43 650.221 684.35 611.301 684.35 563.471 684.35 515.641 645.43 476.721 597.6 476.721Z" fill="#3c3e45"/><g fill="#31353b"><path d="M93.46 124.51H106.64L114.97 155.2C116.93 162.17 118.28 168.46 120.24 175.52H120.66C122.7 168.46 124.06 162.17 126.02 155.2L134.18 124.51H146.93L127.72 187.5H112.67L93.46 124.51Z"/><path d="M154.15 124.51H174.81C188.75 124.51 199.46 129.44 199.46 144.32 199.46 159.2 188.66 165.15 175.15 165.15H166.73V187.51H154.15V124.52 124.51ZM174.3 155.2C182.97 155.2 187.14 151.55 187.14 144.32 187.14 137.09 182.55 134.54 173.88 134.54H166.74V155.2H174.31 174.3Z"/><path d="M210.84 124.51H223.68L241.96 158.09 248.25 171.69H248.67C248.08 165.14 247.05 156.81 247.05 149.67V124.51H258.95V187.5H246.2L228.01 153.84 221.63 140.32H221.21C221.8 147.12 222.74 155.03 222.74 162.25V187.5H210.84V124.51Z"/><path d="M294.82 169.479C302.39 169.229 310.04 168.719 317.18 167.859L317.77 175.939C301.87 178.659 284.36 178.999 270.76 179.089L269.74 169.909C274.07 169.909 278.84 169.909 283.77 169.829V146.709H294.82V169.489 169.479ZM300.94 159.699C302.73 148.559 302.98 140.149 302.98 133.179H273.74V124.249H314.03V130.629C314.03 138.199 314.03 147.719 311.91 160.639L300.94 159.699ZM342.51 157.319H331.97V194.719H320.75V116.439H331.97V147.979H342.51V157.329 157.319Z"/><path d="M438.82 176.62V185.72H367.92V176.62H438.82ZM384.08 132.25H373.45V123.32H432.95V132.25H422.32V155.71H432.69V164.64H373.86V155.71H384.06V132.25H384.08ZM411.2 132.25H395.22V155.71H411.2V132.25Z"/><path d="M517.02 158.429V167.359H446.12V158.429H475.96V152.819H454.96V131.309H497.29V126.549H454.79V118.049H508.34V139.219H466.01V144.319H509.96V152.819H487.18V158.429H517.02ZM453.94 171.779H508.86V194.559H497.64V180.619H453.95V171.779H453.94Z"/><path d="M554.67 133.949C554.67 148.489 560.88 162.769 574.14 168.459L567.76 177.559C558.75 173.479 552.71 165.739 549.23 156.139 545.74 166.599 539.37 175.009 530.02 179.429L523.3 170.159C536.99 164.289 543.45 149.159 543.45 133.949V122.559H554.67V133.949ZM589.18 116.439V194.979H577.96V116.439H589.18Z"/><path d="M692.71 176.62V185.72H621.81V176.62H692.71ZM637.97 132.25H627.34V123.32H686.84V132.25H676.21V155.71H686.58V164.64H627.75V155.71H637.95V132.25H637.97ZM665.09 132.25H649.11V155.71H665.09V132.25Z"/><path d="M770.91 177.049V186.229H700.01V177.049H729.76V165.399H708.17V138.879H751.86V130.459H708.08V121.529H762.91V147.629H719.3V156.389H764.69V165.399H740.97V177.049H770.89 770.91Z"/><path d="M803.21 136.07C803.21 148.74 806.61 161.74 817.24 168.8L811.12 177.47C804.49 173.39 800.32 166.76 797.86 158.85 795.14 167.52 790.55 175 783.49 179.25L776.77 170.83C788.25 163.86 792.41 149.83 792.41 136.49V123.31H803.21V136.06 136.07ZM818.85 117.79H829.31V191.32H818.85V152.05H808.99V142.95H818.85V117.79ZM845.37 116.51V194.8H834.74V116.52H845.37V116.51Z"/><path d="M927.31 176.199V185.299H856.41V176.199H927.31ZM920.08 162.769C906.48 160.049 896.45 152.479 891.43 142.539 886.42 152.489 876.47 160.139 862.87 162.769L858.11 153.329C875.71 150.349 885.48 137.939 885.48 126.719V121.109H897.47V126.719C897.47 138.199 907.16 150.349 924.84 153.329L920.08 162.769Z"/><path d="M968.87 122.729V141.689H985.19V122.729H996.33V176.709H957.74V122.729H968.88 968.87ZM968.87 167.779H985.19V150.439H968.87V167.779ZM1018.77 116.439V194.979H1007.55V116.439H1018.77Z"/><path d="M1103 176.369V185.379H1032.1V176.369H1046.98V151.629H1058.03V176.369H1066.36V151.629H1077.33V176.369H1103ZM1082.68 165.909C1085.23 151.709 1085.31 141.169 1085.31 132.159H1038.98V123.229H1096.53V130.799C1096.53 140.409 1096.53 151.199 1093.89 167.009L1082.67 165.899 1082.68 165.909Z"/><path d="M121.01 380.37C121.01 384.99 122.36 389.64 126.35 391.98L124.04 394.86C121.61 393.39 120.02 391.02 119.12 388.11 118.16 391.26 116.54 393.96 114.05 395.52L111.71 392.61C115.73 390.06 117.17 385.11 117.17 380.37V379.02H112.73V375.81H125.03V379.02H121.01V380.37ZM126.62 373.5H130.31V399.42H126.62V385.68H123.11V382.47H126.62V373.5ZM135.95 373.02V400.65H132.2V373.02H135.95Z"/><path d="M155.81 379.05H139.55V375.96H145.67V373.02H149.66V375.96H155.84L155.81 379.05ZM147.68 390.69C143.72 390.69 140.9 388.53 140.9 385.35 140.9 382.17 143.72 380.04 147.68 380.04 151.64 380.04 154.46 382.23 154.46 385.35 154.46 388.47 151.64 390.69 147.68 390.69ZM147.44 397.05H162.29V400.2H143.48V392.19H147.44V397.05ZM147.68 387.69C149.42 387.69 150.68 386.88 150.68 385.35 150.68 383.82 149.42 383.04 147.68 383.04 145.94 383.04 144.68 383.85 144.68 385.35 144.68 386.85 145.91 387.69 147.68 387.69ZM164.96 381.48V384.75H161.3V393.72H157.34V373.05H161.3V381.48H164.96Z"/><path d="M181.58 388.74C178.55 387.75 176.48 385.77 175.31 383.31 174.08 386.01 171.92 388.23 168.71 389.28L166.7 386.16C171.14 384.66 173.15 381.15 173.21 377.73H167.78V374.58H182.63V377.73H177.26C177.32 380.88 179.24 384.21 183.5 385.65L181.58 388.74ZM171.11 390.72H189.95V400.71H185.99V393.87H171.11V390.72ZM189.95 373.08V389.49H185.99V382.83H181.91V379.65H185.99V373.08H189.95Z"/><path d="M202.07 388.83C197.84 388.83 194.54 385.86 194.54 381.84 194.54 377.82 197.84 374.82 202.07 374.82 206.3 374.82 209.57 377.76 209.57 381.84 209.57 385.92 206.3 388.83 202.07 388.83ZM202.07 385.41C204.14 385.41 205.7 384.06 205.7 381.84 205.7 379.62 204.14 378.24 202.07 378.24 200 378.24 198.41 379.56 198.41 381.84 198.41 384.12 200.03 385.41 202.07 385.41ZM217.79 397.05V400.2H198.71V390.96H202.67V397.05H217.79ZM217.1 392.91H213.11V373.08H217.1V392.91Z"/><path d="M252.98 394.259V397.469H227.96V394.259H252.98ZM233.66 378.599H229.91V375.449H250.91V378.599H247.16V386.879H250.82V390.029H230.06V386.879H233.66V378.599ZM243.23 378.599H237.59V386.879H243.23V378.599Z"/><path d="M260.3 391.08C264.26 391.05 267.53 390.84 271.13 390.21L271.49 393.42C267.35 394.17 263.54 394.35 258.74 394.35H256.4V382.95H265.16V378.54H256.37V375.39H269.06V386.07H260.3V391.08ZM280.91 386.73H276.95V400.74H272.99V373.02H276.95V383.46H280.91V386.73Z"/><path d="M297.86 384.81C297.86 390.9 294.77 394.71 290.6 394.71 286.43 394.71 283.34 390.9 283.34 384.81 283.34 378.72 286.43 374.97 290.6 374.97 294.77 374.97 297.86 378.75 297.86 384.81ZM287.15 384.81C287.15 388.92 288.56 391.11 290.6 391.11 292.64 391.11 294.05 388.92 294.05 384.81 294.05 380.7 292.64 378.54 290.6 378.54 288.56 378.54 287.15 380.73 287.15 384.81ZM305.45 373.02V400.74H301.49V373.02H305.45Z"/><path d="M333.05 373.02V400.74H329.09V385.92H324.14V394.23H310.88V375.21H314.81V381.87H320.24V375.21H324.14V382.74H329.09V373.02H333.05ZM320.24 384.96H314.81V391.08H320.24V384.96Z"/><path d="M347.87 379.2C347.87 384.33 350.06 389.37 354.74 391.38L352.49 394.59C349.31 393.15 347.18 390.42 345.95 387.03 344.72 390.72 342.47 393.69 339.17 395.25L336.8 391.98C341.63 389.91 343.91 384.57 343.91 379.2V375.18H347.87V379.2ZM360.05 373.02V400.74H356.09V373.02H360.05Z"/><path d="M365.3 384.269C365.3 382.619 366.47 381.389 368.03 381.389 369.59 381.389 370.79 382.619 370.79 384.269 370.79 385.919 369.62 387.119 368.03 387.119 366.44 387.119 365.3 385.889 365.3 384.269ZM365.3 395.639C365.3 393.989 366.47 392.759 368.03 392.759 369.59 392.759 370.79 393.989 370.79 395.639 370.79 397.289 369.62 398.519 368.03 398.519 366.44 398.519 365.3 397.259 365.3 395.639Z"/></g><path clip-rule="evenodd" d="M208.01 523.5H277.19C280.06 523.5 282.81 524.64 284.83 526.67 286.86 528.7 288 531.45 288 534.31V575.39C288 578.26 286.86 581.01 284.83 583.03 282.8 585.06 280.05 586.2 277.19 586.2H208.01C205.14 586.2 202.39 585.06 200.37 583.03 198.34 581 197.2 578.25 197.2 575.39V534.31C197.2 531.44 198.34 528.69 200.37 526.67 202.4 524.64 205.15 523.5 208.01 523.5ZM210.17 532.15C209.02 532.15 207.92 532.61 207.11 533.42 206.3 534.23 205.84 535.33 205.84 536.48V573.23C205.84 574.38 206.3 575.48 207.11 576.29 207.92 577.1 209.02 577.56 210.17 577.56H275.03C276.18 577.56 277.28 577.1 278.09 576.29 278.9 575.48 279.36 574.38 279.36 573.23V536.48C279.36 535.33 278.9 534.23 278.09 533.42 277.28 532.61 276.18 532.15 275.03 532.15H210.17ZM195.04 592.68H290.16C291.31 592.68 292.41 593.14 293.22 593.95 294.03 594.76 294.49 595.86 294.49 597.01 294.49 598.16 294.03 599.26 293.22 600.07 292.41 600.88 291.31 601.34 290.16 601.34H195.04C193.89 601.34 192.79 600.88 191.98 600.07 191.17 599.26 190.71 598.16 190.71 597.01 190.71 595.86 191.17 594.76 191.98 593.95 192.79 593.14 193.89 592.68 195.04 592.68Z" fill="#3c3e45" fill-rule="evenodd"/><path d="M242.6 650.67C193.94 650.67 154.35 611.08 154.35 562.42 154.35 513.76 193.94 474.17 242.6 474.17 291.26 474.17 330.85 513.76 330.85 562.42 330.85 611.08 291.26 650.67 242.6 650.67ZM242.6 475.67C194.77 475.67 155.85 514.59 155.85 562.42 155.85 610.25 194.77 649.17 242.6 649.17 290.43 649.17 329.35 610.25 329.35 562.42 329.35 514.59 290.43 475.67 242.6 475.67Z" fill="#3c3e45"/><path d="M475.05 386.489C470.82 386.489 467.64 383.849 467.64 380.159 467.64 376.469 470.82 373.859 475.05 373.859 479.28 373.859 482.4 376.499 482.4 380.159 482.4 383.819 479.25 386.489 475.05 386.489ZM475.05 383.279C477.09 383.279 478.56 382.139 478.56 380.159 478.56 378.179 477.09 377.039 475.05 377.039 473.01 377.039 471.48 378.209 471.48 380.159 471.48 382.109 473.01 383.279 475.05 383.279ZM490.89 397.289V400.349H471.81V392.729H486.27V391.049H471.78V388.019H490.2V395.549H475.74V397.289H490.89ZM490.2 386.879H486.21V373.049H490.2V386.879Z" fill="#31353b"/><path d="M508.59 389.069H495.36V375.029H499.26V378.959H504.69V375.029H508.59V389.069ZM502.44 397.049H517.29V400.199H498.48V391.379H502.44V397.049ZM504.69 382.019H499.26V385.949H504.69V382.019ZM519.96 380.849V384.089H516.3V393.389H512.34V373.049H516.3V380.849H519.96Z" fill="#31353b"/><path d="M536.58 388.74C533.55 387.75 531.48 385.77 530.31 383.31 529.08 386.01 526.92 388.23 523.71 389.28L521.7 386.16C526.14 384.66 528.15 381.15 528.21 377.73H522.78V374.58H537.63V377.73H532.26C532.32 380.88 534.24 384.21 538.5 385.65L536.58 388.74ZM526.11 390.72H544.95V400.71H540.99V393.87H526.11V390.72ZM544.95 373.08V389.49H540.99V382.83H536.91V379.65H540.99V373.08H544.95Z" fill="#31353b"/><path d="M557.07 388.83C552.84 388.83 549.54 385.86 549.54 381.84 549.54 377.82 552.84 374.82 557.07 374.82 561.3 374.82 564.57 377.76 564.57 381.84 564.57 385.92 561.3 388.83 557.07 388.83ZM557.07 385.41C559.14 385.41 560.7 384.06 560.7 381.84 560.7 379.62 559.14 378.24 557.07 378.24 555 378.24 553.41 379.56 553.41 381.84 553.41 384.12 555.03 385.41 557.07 385.41ZM572.79 397.05V400.2H553.71V390.96H557.67V397.05H572.79ZM572.1 392.91H568.11V373.08H572.1V392.91Z" fill="#31353b"/><path d="M607.98 394.259V397.469H582.96V394.259H607.98ZM588.66 378.599H584.91V375.449H605.91V378.599H602.16V386.879H605.82V390.029H585.06V386.879H588.66V378.599ZM598.23 378.599H592.59V386.879H598.23V378.599Z" fill="#31353b"/><path d="M615.3 391.08C619.26 391.05 622.53 390.84 626.13 390.21L626.49 393.42C622.35 394.17 618.54 394.35 613.74 394.35H611.4V382.95H620.16V378.54H611.37V375.39H624.06V386.07H615.3V391.08ZM635.91 386.73H631.95V400.74H627.99V373.02H631.95V383.46H635.91V386.73Z" fill="#31353b"/><path d="M652.86 384.81C652.86 390.9 649.77 394.71 645.6 394.71 641.43 394.71 638.34 390.9 638.34 384.81 638.34 378.72 641.43 374.97 645.6 374.97 649.77 374.97 652.86 378.75 652.86 384.81ZM642.15 384.81C642.15 388.92 643.56 391.11 645.6 391.11 647.64 391.11 649.05 388.92 649.05 384.81 649.05 380.7 647.64 378.54 645.6 378.54 643.56 378.54 642.15 380.73 642.15 384.81ZM660.45 373.02V400.74H656.49V373.02H660.45Z" fill="#31353b"/><path d="M688.05 373.02V400.74H684.09V385.92H679.14V394.23H665.88V375.21H669.81V381.87H675.24V375.21H679.14V382.74H684.09V373.02H688.05ZM675.24 384.96H669.81V391.08H675.24V384.96Z" fill="#31353b"/><path d="M702.87 379.2C702.87 384.33 705.06 389.37 709.74 391.38L707.49 394.59C704.31 393.15 702.18 390.42 700.95 387.03 699.72 390.72 697.47 393.69 694.17 395.25L691.8 391.98C696.63 389.91 698.91 384.57 698.91 379.2V375.18H702.87V379.2ZM715.05 373.02V400.74H711.09V373.02H715.05Z" fill="#31353b"/><path d="M720.3 384.269C720.3 382.619 721.47 381.389 723.03 381.389 724.59 381.389 725.79 382.619 725.79 384.269 725.79 385.919 724.62 387.119 723.03 387.119 721.44 387.119 720.3 385.889 720.3 384.269ZM720.3 395.639C720.3 393.989 721.47 392.759 723.03 392.759 724.59 392.759 725.79 393.989 725.79 395.639 725.79 397.289 724.62 398.519 723.03 398.519 721.44 398.519 720.3 397.259 720.3 395.639Z" fill="#31353b"/><path d="M849.06 374.85C849.06 382.29 844.44 387.42 836.28 389.7L834.69 386.52C840.72 384.9 844.11 381.78 844.71 378H835.98V374.85H849.06ZM856.95 395.04C856.95 398.52 853.26 400.71 847.68 400.71 842.1 400.71 838.41 398.52 838.41 395.04 838.41 391.56 842.1 389.37 847.68 389.37 853.26 389.37 856.95 391.56 856.95 395.04ZM853.05 395.04C853.05 393.33 851.04 392.46 847.68 392.46 844.32 392.46 842.31 393.33 842.31 395.04 842.31 396.75 844.32 397.62 847.68 397.62 851.04 397.62 853.05 396.75 853.05 395.04ZM860.31 379.5V382.77H856.65V389.01H852.69V373.02H856.65V379.5H860.31Z" fill="#31353b"/><path d="M872.55 392.669C874.68 392.549 876.81 392.399 878.79 392.099L879.09 394.949C873.27 396.089 867.06 396.089 862.38 396.089L861.9 392.879C863.88 392.879 866.16 392.879 868.59 392.819V390.479C865.71 389.879 863.82 388.019 863.82 385.469 863.82 382.379 866.61 380.279 870.57 380.279 874.53 380.279 877.32 382.379 877.32 385.469 877.32 388.019 875.43 389.879 872.55 390.479V392.669ZM878.67 379.199H862.41V376.079H868.59V373.169H872.55V376.079H878.67V379.199ZM870.57 387.719C872.37 387.719 873.57 386.939 873.57 385.469 873.57 383.999 872.37 383.279 870.57 383.279 868.77 383.279 867.57 384.059 867.57 385.469 867.57 386.879 868.77 387.719 870.57 387.719ZM887.61 387.569H884.16V400.679H880.2V373.049H884.16V384.299H887.61V387.569Z" fill="#31353b"/><path d="M907.14 389.76C901.38 390.6 895.2 390.72 890.13 390.72L889.62 387.57C891.81 387.57 894.21 387.57 896.64 387.51V384.66H891.9V374.7H905.25V377.85H895.86V381.51H905.43V384.66H900.6V387.36C902.73 387.27 904.86 387.12 906.87 386.94L907.14 389.76ZM913.23 397.05V400.2H893.79V392.34H897.78V397.05H913.23ZM912.51 393.84H908.52V373.02H912.51V393.84Z" fill="#31353b"/><path d="M948.33 394.259V397.469H923.31V394.259H948.33ZM929.01 378.599H925.26V375.449H946.26V378.599H942.51V386.879H946.17V390.029H925.41V386.879H929.01V378.599ZM938.58 378.599H932.94V386.879H938.58V378.599Z" fill="#31353b"/><path d="M955.65 391.08C959.61 391.05 962.88 390.84 966.48 390.21L966.84 393.42C962.7 394.17 958.89 394.35 954.09 394.35H951.75V382.95H960.51V378.54H951.72V375.39H964.41V386.07H955.65V391.08ZM976.26 386.73H972.3V400.74H968.34V373.02H972.3V383.46H976.26V386.73Z" fill="#31353b"/><path d="M993.21 384.81C993.21 390.9 990.12 394.71 985.95 394.71 981.78 394.71 978.69 390.9 978.69 384.81 978.69 378.72 981.78 374.97 985.95 374.97 990.12 374.97 993.21 378.75 993.21 384.81ZM982.5 384.81C982.5 388.92 983.91 391.11 985.95 391.11 987.99 391.11 989.4 388.92 989.4 384.81 989.4 380.7 987.99 378.54 985.95 378.54 983.91 378.54 982.5 380.73 982.5 384.81ZM1000.8 373.02V400.74H996.84V373.02H1000.8Z" fill="#31353b"/><path d="M1028.4 373.02V400.74H1024.44V385.92H1019.49V394.23H1006.23V375.21H1010.16V381.87H1015.59V375.21H1019.49V382.74H1024.44V373.02H1028.4ZM1015.59 384.96H1010.16V391.08H1015.59V384.96Z" fill="#31353b"/><path d="M1043.22 379.2C1043.22 384.33 1045.41 389.37 1050.09 391.38L1047.84 394.59C1044.66 393.15 1042.53 390.42 1041.3 387.03 1040.07 390.72 1037.82 393.69 1034.52 395.25L1032.15 391.98C1036.98 389.91 1039.26 384.57 1039.26 379.2V375.18H1043.22V379.2ZM1055.4 373.02V400.74H1051.44V373.02H1055.4Z" fill="#31353b"/><path d="M1060.65 384.269C1060.65 382.619 1061.82 381.389 1063.38 381.389 1064.94 381.389 1066.14 382.619 1066.14 384.269 1066.14 385.919 1064.97 387.119 1063.38 387.119 1061.79 387.119 1060.65 385.889 1060.65 384.269ZM1060.65 395.639C1060.65 393.989 1061.82 392.759 1063.38 392.759 1064.94 392.759 1066.14 393.989 1066.14 395.639 1066.14 397.289 1064.97 398.519 1063.38 398.519 1061.79 398.519 1060.65 397.259 1060.65 395.639Z" fill="#31353b"/><path d="M951.6 651.721C902.94 651.721 863.35 612.131 863.35 563.471 863.35 514.811 902.94 475.221 951.6 475.221 1000.26 475.221 1039.85 514.811 1039.85 563.471 1039.85 612.131 1000.26 651.721 951.6 651.721ZM951.6 476.721C903.77 476.721 864.85 515.641 864.85 563.471 864.85 611.301 903.77 650.221 951.6 650.221 999.43 650.221 1038.35 611.301 1038.35 563.471 1038.35 515.641 999.43 476.721 951.6 476.721Z" fill="#3c3e45"/><path d="M231.51 709.701C228.45 708.711 226.14 706.581 225 703.911 223.86 706.971 221.43 709.371 218.22 710.511L216.96 708.561C221.01 707.151 223.71 703.671 223.71 699.801V698.751H217.68V696.771H232.11V698.751H226.17V699.801C226.17 703.311 228.72 706.461 232.68 707.781L231.51 709.701ZM238.26 716.661C238.26 719.811 234.87 721.641 229.41 721.641 223.95 721.641 220.53 719.811 220.53 716.661 220.53 713.511 223.89 711.711 229.41 711.711 234.93 711.711 238.26 713.541 238.26 716.661ZM235.8 716.661C235.8 714.771 233.37 713.661 229.41 713.661 225.45 713.661 222.99 714.771 222.99 716.661 222.99 718.551 225.39 719.691 229.41 719.691 233.43 719.691 235.8 718.581 235.8 716.661ZM241.95 701.571V703.641H237.96V711.021H235.5V694.791H237.96V701.571H241.95Z" fill="#31353b"/><path d="M254.28 703.461C254.28 707.961 257.34 712.341 261.33 714.081L259.98 716C256.89 714.59 254.34 711.681 253.11 708.141 251.91 711.891 249.36 714.951 246.27 716.451L244.89 714.591C248.88 712.701 251.85 708.171 251.85 703.461V701.391H245.61V699.41H251.82V695.24H254.31V699.41H260.43V701.391H254.28V703.461ZM266.43 694.73V721.641H263.94V694.73H266.43Z" fill="#31353b"/><path d="M524.49 709.701C521.43 708.711 519.12 706.581 517.98 703.911 516.84 706.971 514.41 709.371 511.2 710.511L509.94 708.561C513.99 707.151 516.69 703.671 516.69 699.801V698.751H510.66V696.771H525.09V698.751H519.15V699.801C519.15 703.311 521.7 706.461 525.66 707.781L524.49 709.701ZM531.24 716.661C531.24 719.811 527.85 721.641 522.39 721.641 516.93 721.641 513.51 719.811 513.51 716.661 513.51 713.511 516.87 711.711 522.39 711.711 527.91 711.711 531.24 713.541 531.24 716.661ZM528.78 716.661C528.78 714.771 526.35 713.661 522.39 713.661 518.43 713.661 515.97 714.771 515.97 716.661 515.97 718.551 518.37 719.691 522.39 719.691 526.41 719.691 528.78 718.581 528.78 716.661ZM534.93 701.571V703.641H530.94V711.021H528.48V694.791H530.94V701.571H534.93Z" fill="#31353b"/><path d="M547.26 703.461C547.26 707.961 550.32 712.341 554.31 714.081L552.96 716C549.87 714.59 547.32 711.681 546.09 708.141 544.89 711.891 542.34 714.951 539.25 716.451L537.87 714.591C541.86 712.701 544.83 708.171 544.83 703.461V701.391H538.59V699.41H544.8V695.24H547.29V699.41H553.41V701.391H547.26V703.461ZM559.41 694.73V721.641H556.92V694.73H559.41Z" fill="#31353b"/><path d="M564.84 713.75C569.73 713.75 576.48 713.72 582.36 712.82L582.57 714.65C576.51 715.76 570 715.82 565.14 715.82L564.84 713.75ZM580.59 703.07C580.59 706.82 577.59 709.4 573.39 709.4 569.19 709.4 566.19 706.82 566.19 703.07 566.19 699.32 569.22 696.74 573.39 696.74 577.56 696.74 580.59 699.29 580.59 703.07ZM568.59 703.07C568.59 705.56 570.63 707.3 573.39 707.3 576.15 707.3 578.19 705.56 578.19 703.07 578.19 700.58 576.18 698.84 573.39 698.84 570.6 698.84 568.59 700.55 568.59 703.07ZM586.59 694.76V721.73H584.13V694.76H586.59Z" fill="#31353b"/><path d="M604.77 708.441C601.2 708.441 598.65 705.951 598.65 702.321 598.65 698.691 601.2 696.261 604.77 696.261 608.34 696.261 610.89 698.721 610.89 702.321 610.89 705.921 608.31 708.441 604.77 708.441ZM604.77 706.431C606.99 706.431 608.64 704.721 608.64 702.321 608.64 699.921 606.99 698.241 604.77 698.241 602.55 698.241 600.87 699.921 600.87 702.321 600.87 704.721 602.52 706.431 604.77 706.431ZM618.66 710.631H621.09V721.311H603.42V710.631H605.88V713.871H618.66V710.631ZM618.66 715.821H605.88V719.301H618.66V715.821ZM621.09 694.791V709.461H618.72V702.981H615.3V709.251H612.96V695.301H615.3V700.941H618.72V694.791H621.09Z" fill="#31353b"/><path d="M641.19 699.081H647.82V701.061H631.95V699.081H638.73V695.091H641.19V699.081ZM646.56 709.491C646.56 713.151 643.83 715.671 639.99 715.671 636.15 715.671 633.48 713.151 633.48 709.491 633.48 705.831 636.21 703.281 639.99 703.281 643.77 703.281 646.56 705.861 646.56 709.491ZM644.22 709.491C644.22 707.061 642.45 705.321 639.99 705.321 637.53 705.321 635.79 707.061 635.79 709.491 635.79 711.921 637.56 713.631 639.99 713.631 642.42 713.631 644.22 711.891 644.22 709.491ZM657.24 707.901H652.83V721.671H650.37V694.791H652.83V705.831H657.24V707.901Z" fill="#31353b"/><path d="M662.91 712.79C666.78 712.79 670.77 712.46 675.12 711.59L675.42 713.63C670.83 714.56 666.72 714.86 662.61 714.86H660.48V697.37H662.91V712.79ZM684.42 707.54H680.1V721.67H677.64V694.76H680.1V705.5H684.42V707.54Z" fill="#31353b"/><path d="M836.01 697.43H838.92L842.49 709.37C843.27 711.95 843.78 714.05 844.62 716.63H844.74C845.55 714.05 846.09 711.95 846.87 709.37L850.41 697.43H853.23L846.24 719.45H843.03L836.01 697.43Z" fill="#31353b"/><path d="M855.93 697.43H862.23C867.15 697.43 870.45 699.11 870.45 703.91 870.45 708.71 867.18 710.72 862.35 710.72H858.72V719.45H855.93V697.43ZM861.99 708.47C865.86 708.47 867.69 707.06 867.69 703.91 867.69 700.76 865.74 699.71 861.87 699.71H858.72V708.47H861.99Z" fill="#31353b"/><path d="M874.59 697.43H877.47L885.48 711.32 887.82 715.85H887.97C887.82 713.63 887.61 711.17 887.61 708.89V697.43H890.25V719.45H887.4L879.39 705.56 877.02 701.03H876.9C877.02 703.25 877.23 705.59 877.23 707.9V719.45H874.59V697.43Z" fill="#31353b"/><path d="M909.21 706.22C909.21 711.95 906.36 715.61 902.37 715.61 898.38 715.61 895.53 711.95 895.53 706.22 895.53 700.49 898.38 696.83 902.37 696.83 906.36 696.83 909.21 700.49 909.21 706.22ZM897.87 706.22C897.87 710.6 899.73 713.42 902.37 713.42 905.01 713.42 906.84 710.6 906.84 706.22 906.84 701.84 904.98 699.05 902.37 699.05 899.76 699.05 897.87 701.87 897.87 706.22ZM916.56 694.76V721.73H914.1V694.76H916.56Z" fill="#31353b"/><path d="M942.72 708.111C939.75 707.061 937.41 704.931 936.24 702.201 935.1 705.231 932.67 707.571 929.52 708.741L928.23 706.791C932.28 705.411 934.95 702.021 934.95 698.121V695.631H937.38V698.121C937.38 701.631 940.11 704.901 943.98 706.191L942.72 708.111ZM951.45 719.361V721.311H933.15V714.621H948V711.981H933.09V710.031H950.43V716.481H935.58V719.361H951.45ZM947.94 701.661H942.09V699.651H947.94V694.791H950.43V708.681H947.94V701.661Z" fill="#31353b"/><path d="M965.46 703.461C965.46 707.961 968.52 712.341 972.51 714.081L971.16 716C968.07 714.59 965.52 711.681 964.29 708.141 963.09 711.891 960.54 714.951 957.45 716.451L956.07 714.591C960.06 712.701 963.03 708.171 963.03 703.461V701.391H956.79V699.41H963V695.24H965.49V699.41H971.61V701.391H965.46V703.461ZM977.61 694.73V721.641H975.12V694.73H977.61Z" fill="#31353b"/><path d="M1000.44 710.51C994.74 711.32 988.35 711.5 983.34 711.5L982.98 709.49C985.32 709.49 987.93 709.46 990.57 709.37V705.56H985.38V696.5H998.19V698.51H987.84V703.58H998.37V705.56H993.03V709.28C995.52 709.16 997.95 709.01 1000.26 708.74L1000.44 710.51ZM1005.78 719.06V721.07H987.48V713.57H989.94V719.06H1005.78ZM1004.88 714.89H1002.42V694.76H1004.88V714.89Z" fill="#31353b"/><path d="M1031.01 709.701C1027.95 708.711 1025.64 706.581 1024.5 703.911 1023.36 706.971 1020.93 709.371 1017.72 710.511L1016.46 708.561C1020.51 707.151 1023.21 703.671 1023.21 699.801V698.751H1017.18V696.771H1031.61V698.751H1025.67V699.801C1025.67 703.311 1028.22 706.461 1032.18 707.781L1031.01 709.701ZM1037.76 716.661C1037.76 719.811 1034.37 721.641 1028.91 721.641 1023.45 721.641 1020.03 719.811 1020.03 716.661 1020.03 713.511 1023.39 711.711 1028.91 711.711 1034.43 711.711 1037.76 713.541 1037.76 716.661ZM1035.3 716.661C1035.3 714.771 1032.87 713.661 1028.91 713.661 1024.95 713.661 1022.49 714.771 1022.49 716.661 1022.49 718.551 1024.89 719.691 1028.91 719.691 1032.93 719.691 1035.3 718.581 1035.3 716.661ZM1041.45 701.571V703.641H1037.46V711.021H1035V694.791H1037.46V701.571H1041.45Z" fill="#31353b"/><path d="M1053.78 703.461C1053.78 707.961 1056.84 712.341 1060.83 714.081L1059.48 716C1056.39 714.59 1053.84 711.681 1052.61 708.141 1051.41 711.891 1048.86 714.951 1045.77 716.451L1044.39 714.591C1048.38 712.701 1051.35 708.171 1051.35 703.461V701.391H1045.11V699.41H1051.32V695.24H1053.81V699.41H1059.93V701.391H1053.78V703.461ZM1065.93 694.73V721.641H1063.44V694.73H1065.93Z" fill="#31353b"/><path d="M1075.44 490.07H1015.44V539.07H1075.44V490.07Z" fill="#ffffff"/><path d="M1044.24 474.699C1044.71 474.579 1045.2 474.579 1045.67 474.699L1081.01 486.339C1082.32 486.659 1083.24 487.829 1083.24 489.159V524.269C1083.24 545.169 1066.1 562.109 1044.96 562.109 1023.82 562.109 1006.68 545.169 1006.68 524.269V489.159C1006.68 487.829 1007.6 486.659 1008.91 486.339L1044.25 474.699H1044.24Z" fill="url(#paint0_linear_11_468)"/><path d="M1044.96 493.75C1032.88 493.75 1023.08 503.78 1023.08 516.15 1023.08 521.06 1024.62 525.61 1027.24 529.3L1037.74 511.84 1041.52 518.46 1040.48 513.53 1044.95 505.81 1052.17 518.46 1051.14 513.58 1052.15 511.82 1062.66 529.29C1065.38 525.45 1066.83 520.85 1066.82 516.14 1066.82 503.77 1057.03 493.74 1044.94 493.74L1044.96 493.75Z" fill="#e9f0ff"/><path d="M594.52 1079.08C545.86 1079.08 506.27 1039.49 506.27 990.83 506.27 942.17 545.86 902.58 594.52 902.58 643.18 902.58 682.77 942.17 682.77 990.83 682.77 1039.49 643.18 1079.08 594.52 1079.08ZM594.52 904.08C546.69 904.08 507.77 943 507.77 990.83 507.77 1038.66 546.69 1077.58 594.52 1077.58 642.35 1077.58 681.27 1038.66 681.27 990.83 681.27 943 642.35 904.08 594.52 904.08Z" fill="#3c3e45"/><path d="M548.89 1124.77V1126.81H524.5V1124.77H548.89ZM530.83 1108.03H526.66V1106.05H546.61V1108.03H542.44V1117.39H546.55V1119.4H526.72V1117.39H530.83V1108.03ZM539.98 1108.03H533.29V1117.39H539.98V1108.03Z" fill="#31353b"/><path d="M576.19 1118.14V1120.15H551.77V1118.14H562.75V1115.32H554.92V1108.75H570.64V1105.96H554.86V1104.04H573.07V1110.58H557.35V1113.4H573.64V1115.32H565.24V1118.14H576.19ZM554.5 1122.22H573.22V1130.02H570.76V1124.23H554.5V1122.22Z" fill="#31353b"/><path d="M588.64 1110.52C588.64 1115.44 591.85 1120.39 595.84 1122.19L594.37 1124.17C591.31 1122.67 588.73 1119.49 587.44 1115.65 586.21 1119.7 583.63 1123.06 580.48 1124.68L578.98 1122.67C582.94 1120.78 586.21 1115.62 586.21 1110.52V1105.69H588.64V1110.52ZM601.12 1103.35V1130.32H598.66V1103.35H601.12Z" fill="#31353b"/><path d="M622.24 1110.49C622.24 1115.38 625.3 1120.27 629.2 1122.13L627.76 1124.08C624.7 1122.55 622.24 1119.34 621.01 1115.56 619.84 1119.55 617.35 1122.94 614.32 1124.56L612.82 1122.61C616.72 1120.66 619.78 1115.47 619.78 1110.49V1105.66H622.24V1110.49ZM634.99 1103.35V1130.29H632.53V1114.48H626.29V1112.47H632.53V1103.35H634.99Z" fill="#31353b"/><path d="M662.29 1103.35V1130.32H659.83V1115.32H653.53V1123.51H641.2V1105.48H643.63V1112.47H651.13V1105.48H653.53V1113.34H659.83V1103.35H662.29ZM651.13 1114.42H643.63V1121.5H651.13V1114.42Z" fill="#31353b"/><path d="M555.5 1004.3V957.921C555.5 957.761 555.51 957.611 555.53 957.461 555.51 957.281 555.5 957.111 555.5 956.931 555.5 949.251 571.98 945.961 594.52 945.961 617.06 945.961 633.54 949.251 633.54 956.931 633.54 957.111 633.54 957.291 633.51 957.461 633.53 957.611 633.54 957.771 633.54 957.921V1026.23C633.54 1026.96 633.34 1027.68 632.96 1028.3 632.58 1028.92 632.03 1029.43 631.38 1029.77 623.64 1033.78 611.8 1035.7 595.75 1035.7 579.7 1035.7 567.21 1033.8 557.95 1029.91 557.22 1029.61 556.6 1029.09 556.17 1028.44 555.73 1027.79 555.5 1027.02 555.5 1026.23V1004.29 1004.3ZM563.5 1009.95V1023.5C571.45 1026.29 582.21 1027.72 595.74 1027.72 609.27 1027.72 619.02 1026.33 625.53 1023.68V1010.22C618.1 1012.61 608.19 1013.76 595.74 1013.76 583.29 1013.76 572.04 1012.5 563.5 1009.95ZM625.53 988.291C618.1 990.681 608.19 991.831 595.74 991.831 583.29 991.831 572.04 990.571 563.5 988.021V1001.57C571.45 1004.36 582.21 1005.79 595.74 1005.79 609.27 1005.79 619.02 1004.4 625.53 1001.75V988.291ZM563.5 964.381V979.621C571.45 982.411 582.21 983.841 595.74 983.841 609.27 983.841 619.02 982.451 625.53 979.801V964.371C618.56 966.781 607.55 967.881 594.51 967.881 581.47 967.881 570.46 966.781 563.49 964.371L563.5 964.381ZM566.35 956.931C567.53 957.291 568.94 957.641 570.54 957.961 576.78 959.201 585.35 959.931 594.52 959.931 603.69 959.931 612.25 959.211 618.5 957.961 620.1 957.641 621.51 957.291 622.69 956.931 621.31 956.521 619.92 956.181 618.5 955.901 612.26 954.661 603.69 953.931 594.52 953.931 585.35 953.931 576.79 954.651 570.54 955.901 568.94 956.221 567.53 956.571 566.35 956.931ZM571.5 969.891C572.56 969.891 573.58 970.311 574.33 971.061 575.08 971.811 575.5 972.821 575.5 973.881 575.5 974.941 575.08 975.951 574.33 976.701 573.58 977.451 572.56 977.871 571.5 977.871 570.44 977.871 569.42 977.451 568.67 976.701 567.92 975.951 567.5 974.941 567.5 973.881 567.5 972.821 567.92 971.811 568.67 971.061 569.42 970.311 570.44 969.891 571.5 969.891ZM571.5 991.831C572.56 991.831 573.58 992.251 574.33 993.001 575.08 993.751 575.5 994.761 575.5 995.821 575.5 996.881 575.08 997.891 574.33 998.641 573.58 999.391 572.56 999.811 571.5 999.811 570.44 999.811 569.42 999.391 568.67 998.641 567.92 997.891 567.5 996.881 567.5 995.821 567.5 994.761 567.92 993.751 568.67 993.001 569.42 992.251 570.44 991.831 571.5 991.831ZM571.5 1013.77C572.56 1013.77 573.58 1014.19 574.33 1014.94 575.08 1015.69 575.5 1016.7 575.5 1017.76 575.5 1018.82 575.08 1019.83 574.33 1020.58 573.58 1021.33 572.56 1021.75 571.5 1021.75 570.44 1021.75 569.42 1021.33 568.67 1020.58 567.92 1019.83 567.5 1018.82 567.5 1017.76 567.5 1016.7 567.92 1015.69 568.67 1014.94 569.42 1014.19 570.44 1013.77 571.5 1013.77Z" fill="#3c3e45"/><path d="M954.52 1079.08C905.86 1079.08 866.27 1039.49 866.27 990.83 866.27 942.17 905.86 902.58 954.52 902.58 1003.18 902.58 1042.77 942.17 1042.77 990.83 1042.77 1039.49 1003.18 1079.08 954.52 1079.08ZM954.52 904.08C906.69 904.08 867.77 943 867.77 990.83 867.77 1038.66 906.69 1077.58 954.52 1077.58 1002.35 1077.58 1041.27 1038.66 1041.27 990.83 1041.27 943 1002.35 904.08 954.52 904.08Z" fill="#3c3e45"/><path d="M895.41 1106.02H898.32L901.89 1117.96C902.67 1120.54 903.18 1122.64 904.02 1125.22H904.14C904.95 1122.64 905.49 1120.54 906.27 1117.96L909.81 1106.02H912.63L905.64 1128.04H902.43L895.41 1106.02Z" fill="#31353b"/><path d="M915.33 1106.02H921.63C926.55 1106.02 929.85 1107.7 929.85 1112.5 929.85 1117.3 926.58 1119.31 921.75 1119.31H918.12V1128.04H915.33V1106.02ZM921.39 1117.06C925.26 1117.06 927.09 1115.65 927.09 1112.5 927.09 1109.35 925.14 1108.3 921.27 1108.3H918.12V1117.06H921.39Z" fill="#31353b"/><path d="M933.99 1106.02H936.87L944.88 1119.91 947.22 1124.44H947.37C947.22 1122.22 947.01 1119.76 947.01 1117.48V1106.02H949.65V1128.04H946.8L938.79 1114.15 936.42 1109.62H936.3C936.42 1111.84 936.63 1114.18 936.63 1116.49V1128.04H933.99V1106.02Z" fill="#31353b"/><path d="M969.78 1110.49C969.78 1115.38 972.84 1120.27 976.74 1122.13L975.3 1124.08C972.24 1122.55 969.78 1119.34 968.55 1115.56 967.38 1119.55 964.89 1122.94 961.86 1124.56L960.36 1122.61C964.26 1120.66 967.32 1115.47 967.32 1110.49V1105.66H969.78V1110.49ZM982.53 1103.35V1130.29H980.07V1114.48H973.83V1112.47H980.07V1103.35H982.53Z" fill="#31353b"/><path d="M1009.82 1103.35V1130.32H1007.36V1115.32H1001.06V1123.51H988.73V1105.48H991.16V1112.47H998.66V1105.48H1001.06V1113.34H1007.36V1103.35H1009.82ZM998.66 1114.42H991.16V1121.5H998.66V1114.42Z" fill="#31353b"/><path d="M915.5 1004.3V957.921C915.5 957.761 915.51 957.611 915.53 957.461 915.51 957.281 915.5 957.111 915.5 956.931 915.5 949.251 931.98 945.961 954.52 945.961 977.06 945.961 993.54 949.251 993.54 956.931 993.54 957.111 993.54 957.291 993.51 957.461 993.53 957.611 993.54 957.771 993.54 957.921V1026.23C993.54 1026.96 993.34 1027.68 992.96 1028.3 992.58 1028.92 992.03 1029.43 991.38 1029.77 983.64 1033.78 971.8 1035.7 955.75 1035.7 939.7 1035.7 927.21 1033.8 917.95 1029.91 917.22 1029.61 916.6 1029.09 916.17 1028.44 915.73 1027.79 915.5 1027.02 915.5 1026.23V1004.29 1004.3ZM923.5 1009.95V1023.5C931.45 1026.29 942.21 1027.72 955.74 1027.72 969.27 1027.72 979.02 1026.33 985.53 1023.68V1010.22C978.1 1012.61 968.19 1013.76 955.74 1013.76 943.29 1013.76 932.04 1012.5 923.5 1009.95ZM985.53 988.291C978.1 990.681 968.19 991.831 955.74 991.831 943.29 991.831 932.04 990.571 923.5 988.021V1001.57C931.45 1004.36 942.21 1005.79 955.74 1005.79 969.27 1005.79 979.02 1004.4 985.53 1001.75V988.291ZM923.5 964.381V979.621C931.45 982.411 942.21 983.841 955.74 983.841 969.27 983.841 979.02 982.451 985.53 979.801V964.371C978.56 966.781 967.55 967.881 954.51 967.881 941.47 967.881 930.46 966.781 923.49 964.371L923.5 964.381ZM926.35 956.931C927.53 957.291 928.94 957.641 930.54 957.961 936.78 959.201 945.35 959.931 954.52 959.931 963.69 959.931 972.25 959.211 978.5 957.961 980.1 957.641 981.51 957.291 982.69 956.931 981.31 956.521 979.92 956.181 978.5 955.901 972.26 954.661 963.69 953.931 954.52 953.931 945.35 953.931 936.79 954.651 930.54 955.901 928.94 956.221 927.53 956.571 926.35 956.931ZM931.5 969.891C932.56 969.891 933.58 970.311 934.33 971.061 935.08 971.811 935.5 972.821 935.5 973.881 935.5 974.941 935.08 975.951 934.33 976.701 933.58 977.451 932.56 977.871 931.5 977.871 930.44 977.871 929.42 977.451 928.67 976.701 927.92 975.951 927.5 974.941 927.5 973.881 927.5 972.821 927.92 971.811 928.67 971.061 929.42 970.311 930.44 969.891 931.5 969.891ZM931.5 991.831C932.56 991.831 933.58 992.251 934.33 993.001 935.08 993.751 935.5 994.761 935.5 995.821 935.5 996.881 935.08 997.891 934.33 998.641 933.58 999.391 932.56 999.811 931.5 999.811 930.44 999.811 929.42 999.391 928.67 998.641 927.92 997.891 927.5 996.881 927.5 995.821 927.5 994.761 927.92 993.751 928.67 993.001 929.42 992.251 930.44 991.831 931.5 991.831ZM931.5 1013.77C932.56 1013.77 933.58 1014.19 934.33 1014.94 935.08 1015.69 935.5 1016.7 935.5 1017.76 935.5 1018.82 935.08 1019.83 934.33 1020.58 933.58 1021.33 932.56 1021.75 931.5 1021.75 930.44 1021.75 929.42 1021.33 928.67 1020.58 927.92 1019.83 927.5 1018.82 927.5 1017.76 927.5 1016.7 927.92 1015.69 928.67 1014.94 929.42 1014.19 930.44 1013.77 931.5 1013.77Z" fill="#3c3e45"/><path d="M562.63 1493.5C558.64 1493.5 555.64 1490.74 555.64 1486.84 555.64 1482.94 558.64 1480.24 562.63 1480.24 566.62 1480.24 569.68 1482.97 569.68 1486.84 569.68 1490.71 566.65 1493.5 562.63 1493.5ZM562.63 1491.37C565.3 1491.37 567.28 1489.51 567.28 1486.84 567.28 1484.17 565.3 1482.37 562.63 1482.37 559.96 1482.37 558.04 1484.23 558.04 1486.84 558.04 1489.45 560.02 1491.37 562.63 1491.37ZM577.9 1502.65V1504.66H559.78V1496.02H562.24V1502.65H577.9ZM577.09 1498.03H574.63V1478.38H577.09V1498.03Z" fill="#31353b"/><path d="M586 1496.8C590.86 1496.8 593.98 1496.62 597.64 1495.96L597.91 1497.97C594.01 1498.66 590.74 1498.81 585.61 1498.81H583.54V1480.78H595.99V1482.82H586V1488.37H594.82V1490.35H586V1496.8ZM604.48 1478.32V1505.29H602.02V1490.53H596.47V1488.49H602.02V1478.32H604.48Z" fill="#31353b"/><path d="M622.36 1492.3C618.82 1493.05 615.91 1493.23 612.76 1493.23H611.05V1480.78H613.48V1491.19C616.24 1491.16 618.97 1490.95 622.12 1490.29L622.36 1492.3ZM624.61 1496.17C624.61 1499.65 628.99 1502.53 633.73 1503.25L632.8 1505.17C628.81 1504.48 625.03 1502.44 623.38 1499.47 621.73 1502.44 617.98 1504.48 613.99 1505.17L613.09 1503.25C617.8 1502.53 622.15 1499.65 622.15 1496.17V1495.21H624.61V1496.17ZM624.67 1486.48H618.94V1484.5H624.67V1478.92H627.01V1494.16H624.67V1486.48ZM632.41 1496.56H630.07V1478.35H632.41V1496.56Z" fill="#31353b"/><path d="M594.45 1454.2C545.79 1454.2 506.2 1414.61 506.2 1365.95 506.2 1317.29 545.79 1277.7 594.45 1277.7 643.11 1277.7 682.7 1317.29 682.7 1365.95 682.7 1414.61 643.11 1454.2 594.45 1454.2ZM594.45 1279.2C546.62 1279.2 507.7 1318.12 507.7 1365.95 507.7 1413.78 546.62 1452.7 594.45 1452.7 642.28 1452.7 681.2 1413.78 681.2 1365.95 681.2 1318.12 642.28 1279.2 594.45 1279.2Z" fill="#3c3e45"/><path d="M650.68 1365.95C650.68 1334.8 625.6 1309.72 594.45 1309.72 563.3 1309.72 538.22 1334.8 538.22 1365.95 538.22 1397.1 563.3 1422.18 594.45 1422.18 625.6 1422.18 650.68 1396.69 650.68 1365.95ZM615.08 1409.23C617.51 1405.99 619.53 1401.95 621.15 1397.09H630.86C626.41 1402.35 621.15 1406.39 615.08 1409.23ZM636.52 1389H623.98C625.6 1382.93 626.41 1376.46 626.81 1369.58H642.59C641.78 1376.46 639.76 1383.33 636.52 1389ZM636.52 1342.48C639.76 1348.55 641.78 1355.02 642.18 1361.9H626.4C626 1355.02 625.19 1348.55 623.57 1342.48H636.52ZM630.86 1334.39H621.56C619.94 1329.94 617.92 1325.89 615.49 1322.25 621.15 1325.49 626.41 1329.53 630.86 1334.39ZM598.5 1318.61C604.16 1320.63 609.02 1326.3 612.66 1334.39H598.5V1318.61ZM598.5 1342.48H615.49C617.11 1348.14 618.32 1355.02 618.73 1361.9H598.5V1342.48ZM598.5 1369.99H618.32C617.92 1376.87 617.11 1383.34 615.08 1389.41H598.49V1369.99H598.5ZM598.5 1397.09H612.66C609.02 1405.18 604.16 1410.84 598.5 1412.87V1397.09ZM573.82 1322.66C571.39 1325.9 569.37 1329.94 567.75 1334.8H558.04C562.49 1329.54 567.75 1325.5 573.82 1322.66ZM552.38 1342.48H564.92C563.3 1348.55 562.49 1355.02 562.09 1361.9H546.31C547.12 1355.02 549.14 1348.55 552.38 1342.48ZM552.38 1389C549.14 1382.93 547.12 1376.46 546.72 1369.58H562.5C562.9 1376.46 563.71 1382.93 565.33 1389H552.38ZM558.04 1397.09H567.34C568.96 1401.54 570.98 1405.59 573.41 1409.23 567.75 1406.4 562.49 1402.35 558.04 1397.09ZM590.4 1412.87C584.74 1410.85 579.88 1405.18 576.24 1397.09H590.4V1412.87ZM590.4 1389H573.41C571.79 1383.34 570.58 1376.46 570.17 1369.58H590.4V1389ZM590.4 1361.9H570.58C570.98 1355.02 571.79 1348.55 573.82 1342.48H590.41V1361.9H590.4ZM590.4 1334.39H576.24C579.88 1326.3 584.74 1320.64 590.4 1318.61V1334.39Z" fill="#3c3e45"/><path d="M921.63 1493.5C917.64 1493.5 914.64 1490.74 914.64 1486.84 914.64 1482.94 917.64 1480.24 921.63 1480.24 925.62 1480.24 928.68 1482.97 928.68 1486.84 928.68 1490.71 925.65 1493.5 921.63 1493.5ZM921.63 1491.37C924.3 1491.37 926.28 1489.51 926.28 1486.84 926.28 1484.17 924.3 1482.37 921.63 1482.37 918.96 1482.37 917.04 1484.23 917.04 1486.84 917.04 1489.45 919.02 1491.37 921.63 1491.37ZM936.9 1502.65V1504.66H918.78V1496.02H921.24V1502.65H936.9ZM936.09 1498.03H933.63V1478.38H936.09V1498.03Z" fill="#31353b"/><path d="M945 1496.8C949.86 1496.8 952.98 1496.62 956.64 1495.96L956.91 1497.97C953.01 1498.66 949.74 1498.81 944.61 1498.81H942.54V1480.78H954.99V1482.82H945V1488.37H953.82V1490.35H945V1496.8ZM963.48 1478.32V1505.29H961.02V1490.53H955.47V1488.49H961.02V1478.32H963.48Z" fill="#31353b"/><path d="M981.36 1492.3C977.82 1493.05 974.91 1493.23 971.76 1493.23H970.05V1480.78H972.48V1491.19C975.24 1491.16 977.97 1490.95 981.12 1490.29L981.36 1492.3ZM983.61 1496.17C983.61 1499.65 987.99 1502.53 992.73 1503.25L991.8 1505.17C987.81 1504.48 984.03 1502.44 982.38 1499.47 980.73 1502.44 976.98 1504.48 972.99 1505.17L972.09 1503.25C976.8 1502.53 981.15 1499.65 981.15 1496.17V1495.21H983.61V1496.17ZM983.67 1486.48H977.94V1484.5H983.67V1478.92H986.01V1494.16H983.67V1486.48ZM991.41 1496.56H989.07V1478.35H991.41V1496.56Z" fill="#31353b"/><path d="M953.45 1454.2C904.79 1454.2 865.2 1414.61 865.2 1365.95 865.2 1317.29 904.79 1277.7 953.45 1277.7 1002.11 1277.7 1041.7 1317.29 1041.7 1365.95 1041.7 1414.61 1002.11 1454.2 953.45 1454.2ZM953.45 1279.2C905.62 1279.2 866.7 1318.12 866.7 1365.95 866.7 1413.78 905.62 1452.7 953.45 1452.7 1001.28 1452.7 1040.2 1413.78 1040.2 1365.95 1040.2 1318.12 1001.28 1279.2 953.45 1279.2Z" fill="#3c3e45"/><path d="M1009.68 1365.95C1009.68 1334.8 984.6 1309.72 953.45 1309.72 922.3 1309.72 897.22 1334.8 897.22 1365.95 897.22 1397.1 922.3 1422.18 953.45 1422.18 984.6 1422.18 1009.68 1396.69 1009.68 1365.95ZM974.08 1409.23C976.51 1405.99 978.53 1401.95 980.15 1397.09H989.86C985.41 1402.35 980.15 1406.39 974.08 1409.23ZM995.52 1389H982.98C984.6 1382.93 985.41 1376.46 985.81 1369.58H1001.59C1000.78 1376.46 998.76 1383.33 995.52 1389ZM995.52 1342.48C998.76 1348.55 1000.78 1355.02 1001.18 1361.9H985.4C985 1355.02 984.19 1348.55 982.57 1342.48H995.52ZM989.86 1334.39H980.56C978.94 1329.94 976.92 1325.89 974.49 1322.25 980.15 1325.49 985.41 1329.53 989.86 1334.39ZM957.5 1318.61C963.16 1320.63 968.02 1326.3 971.66 1334.39H957.5V1318.61ZM957.5 1342.48H974.49C976.11 1348.14 977.32 1355.02 977.73 1361.9H957.5V1342.48ZM957.5 1369.99H977.32C976.92 1376.87 976.11 1383.34 974.08 1389.41H957.49V1369.99H957.5ZM957.5 1397.09H971.66C968.02 1405.18 963.16 1410.84 957.5 1412.87V1397.09ZM932.82 1322.66C930.39 1325.9 928.37 1329.94 926.75 1334.8H917.04C921.49 1329.54 926.75 1325.5 932.82 1322.66ZM911.38 1342.48H923.92C922.3 1348.55 921.49 1355.02 921.09 1361.9H905.31C906.12 1355.02 908.14 1348.55 911.38 1342.48ZM911.38 1389C908.14 1382.93 906.12 1376.46 905.72 1369.58H921.5C921.9 1376.46 922.71 1382.93 924.33 1389H911.38ZM917.04 1397.09H926.34C927.96 1401.54 929.98 1405.59 932.41 1409.23 926.75 1406.4 921.49 1402.35 917.04 1397.09ZM949.4 1412.87C943.74 1410.85 938.88 1405.18 935.24 1397.09H949.4V1412.87ZM949.4 1389H932.41C930.79 1383.34 929.58 1376.46 929.17 1369.58H949.4V1389ZM949.4 1361.9H929.58C929.98 1355.02 930.79 1348.55 932.82 1342.48H949.41V1361.9H949.4ZM949.4 1334.39H935.24C938.88 1326.3 943.74 1320.64 949.4 1318.61V1334.39Z" fill="#3c3e45"/><path d="M210.63 1493.5C206.64 1493.5 203.64 1490.74 203.64 1486.84 203.64 1482.94 206.64 1480.24 210.63 1480.24 214.62 1480.24 217.68 1482.97 217.68 1486.84 217.68 1490.71 214.65 1493.5 210.63 1493.5ZM210.63 1491.37C213.3 1491.37 215.28 1489.51 215.28 1486.84 215.28 1484.17 213.3 1482.37 210.63 1482.37 207.96 1482.37 206.04 1484.23 206.04 1486.84 206.04 1489.45 208.02 1491.37 210.63 1491.37ZM225.9 1502.65V1504.66H207.78V1496.02H210.24V1502.65H225.9ZM225.09 1498.03H222.63V1478.38H225.09V1498.03Z" fill="#31353b"/><path d="M234 1496.8C238.86 1496.8 241.98 1496.62 245.64 1495.96L245.91 1497.97C242.01 1498.66 238.74 1498.81 233.61 1498.81H231.54V1480.78H243.99V1482.82H234V1488.37H242.82V1490.35H234V1496.8ZM252.48 1478.32V1505.29H250.02V1490.53H244.47V1488.49H250.02V1478.32H252.48Z" fill="#31353b"/><path d="M270.36 1492.3C266.82 1493.05 263.91 1493.23 260.76 1493.23H259.05V1480.78H261.48V1491.19C264.24 1491.16 266.97 1490.95 270.12 1490.29L270.36 1492.3ZM272.61 1496.17C272.61 1499.65 276.99 1502.53 281.73 1503.25L280.8 1505.17C276.81 1504.48 273.03 1502.44 271.38 1499.47 269.73 1502.44 265.98 1504.48 261.99 1505.17L261.09 1503.25C265.8 1502.53 270.15 1499.65 270.15 1496.17V1495.21H272.61V1496.17ZM272.67 1486.48H266.94V1484.5H272.67V1478.92H275.01V1494.16H272.67V1486.48ZM280.41 1496.56H278.07V1478.35H280.41V1496.56Z" fill="#31353b"/><path d="M242.45 1454.2C193.79 1454.2 154.2 1414.61 154.2 1365.95 154.2 1317.29 193.79 1277.7 242.45 1277.7 291.11 1277.7 330.7 1317.29 330.7 1365.95 330.7 1414.61 291.11 1454.2 242.45 1454.2ZM242.45 1279.2C194.62 1279.2 155.7 1318.12 155.7 1365.95 155.7 1413.78 194.62 1452.7 242.45 1452.7 290.28 1452.7 329.2 1413.78 329.2 1365.95 329.2 1318.12 290.28 1279.2 242.45 1279.2Z" fill="#3c3e45"/><path d="M298.68 1365.95C298.68 1334.8 273.6 1309.72 242.45 1309.72 211.3 1309.72 186.22 1334.8 186.22 1365.95 186.22 1397.1 211.3 1422.18 242.45 1422.18 273.6 1422.18 298.68 1396.69 298.68 1365.95ZM263.08 1409.23C265.51 1405.99 267.53 1401.95 269.15 1397.09H278.86C274.41 1402.35 269.15 1406.39 263.08 1409.23ZM284.52 1389H271.98C273.6 1382.93 274.41 1376.46 274.81 1369.58H290.59C289.78 1376.46 287.76 1383.33 284.52 1389ZM284.52 1342.48C287.76 1348.55 289.78 1355.02 290.18 1361.9H274.4C274 1355.02 273.19 1348.55 271.57 1342.48H284.52ZM278.86 1334.39H269.56C267.94 1329.94 265.92 1325.89 263.49 1322.25 269.15 1325.49 274.41 1329.53 278.86 1334.39ZM246.5 1318.61C252.16 1320.63 257.02 1326.3 260.66 1334.39H246.5V1318.61ZM246.5 1342.48H263.49C265.11 1348.14 266.32 1355.02 266.73 1361.9H246.5V1342.48ZM246.5 1369.99H266.32C265.92 1376.87 265.11 1383.34 263.08 1389.41H246.49V1369.99H246.5ZM246.5 1397.09H260.66C257.02 1405.18 252.16 1410.84 246.5 1412.87V1397.09ZM221.82 1322.66C219.39 1325.9 217.37 1329.94 215.75 1334.8H206.04C210.49 1329.54 215.75 1325.5 221.82 1322.66ZM200.38 1342.48H212.92C211.3 1348.55 210.49 1355.02 210.09 1361.9H194.31C195.12 1355.02 197.14 1348.55 200.38 1342.48ZM200.38 1389C197.14 1382.93 195.12 1376.46 194.72 1369.58H210.5C210.9 1376.46 211.71 1382.93 213.33 1389H200.38ZM206.04 1397.09H215.34C216.96 1401.54 218.98 1405.59 221.41 1409.23 215.75 1406.4 210.49 1402.35 206.04 1397.09ZM238.4 1412.87C232.74 1410.85 227.88 1405.18 224.24 1397.09H238.4V1412.87ZM238.4 1389H221.41C219.79 1383.34 218.58 1376.46 218.17 1369.58H238.4V1389ZM238.4 1361.9H218.58C218.98 1355.02 219.79 1348.55 221.82 1342.48H238.41V1361.9H238.4ZM238.4 1334.39H224.24C227.88 1326.3 232.74 1320.64 238.4 1318.61V1334.39Z" fill="#3c3e45"/><path d="M265.19 772.07H263.69V1244.31H265.19V772.07Z" fill="#3c3e45"/><path d="M256.96 1242.12 264.44 1255.07 271.92 1242.12H256.96Z" fill="#3c3e45"/><path d="M220.69 782.83H219.19V1255.07H220.69V782.83Z" fill="#3c3e45"/><path d="M212.46 785.02 219.94 772.07 227.42 785.02H212.46Z" fill="#3c3e45"/><path d="M621.19 772.07H619.69V868.31H621.19V772.07Z" fill="#3c3e45"/><path d="M612.96 866.121 620.44 879.071 627.92 866.121H612.96Z" fill="#3c3e45"/><path d="M576.69 782.83H575.19V879.07H576.69V782.83Z" fill="#3c3e45"/><path d="M568.46 785.02 575.94 772.07 583.42 785.02H568.46Z" fill="#3c3e45"/><path d="M973.19 772.07H971.69V868.31H973.19V772.07Z" fill="#3c3e45"/><path d="M964.96 866.121 972.44 879.071 979.92 866.121H964.96Z" fill="#3c3e45"/><path d="M928.69 782.83H927.19V879.07H928.69V782.83Z" fill="#3c3e45"/><path d="M920.46 785.02 927.94 772.07 935.42 785.02H920.46Z" fill="#3c3e45"/><path d="M621.19 1157.07H619.69V1245.31H621.19V1157.07Z" fill="#3c3e45"/><path d="M612.96 1243.12 620.44 1256.07 627.92 1243.12H612.96Z" fill="#3c3e45"/><path d="M576.69 1167.83H575.19V1256.07H576.69V1167.83Z" fill="#3c3e45"/><path d="M568.46 1170.02 575.94 1157.07 583.42 1170.02H568.46Z" fill="#3c3e45"/><path d="M973.19 1152.07H971.69V1248.31H973.19V1152.07Z" fill="#3c3e45"/><path d="M964.96 1246.12 972.44 1259.07 979.92 1246.12H964.96Z" fill="#3c3e45"/><path d="M928.69 1162.83H927.19V1259.07H928.69V1162.83Z" fill="#3c3e45"/><path d="M920.46 1165.02 927.94 1152.07 935.42 1165.02H920.46Z" fill="#3c3e45"/><path d="M899.94 772.07H895.94V879.07H899.94V772.07Z" fill="url(#paint1_linear_11_468)"/><path d="M1004.44 772.07H1000.44V879.07H1004.44V772.07Z" fill="url(#paint2_linear_11_468)"/><path d="M899.94 1152.07H895.94V1259.07H899.94V1152.07Z" fill="url(#paint3_linear_11_468)"/><path d="M1004.44 1152.07H1000.44V1259.07H1004.44V1152.07Z" fill="url(#paint4_linear_11_468)"/><path d="M755.84 1667.34C755.84 1665.25 757.54 1663.52 759.66 1663.52 761.78 1663.52 763.48 1665.25 763.48 1667.34 763.48 1669.43 761.78 1671.16 759.66 1671.16 757.54 1671.16 755.84 1669.43 755.84 1667.34ZM756.56 1667.34C756.56 1669.07 757.93 1670.48 759.66 1670.48 761.39 1670.48 762.76 1669.07 762.76 1667.34 762.76 1665.61 761.35 1664.2 759.66 1664.2 757.93 1664.2 756.56 1665.61 756.56 1667.34ZM759.08 1669.5H758.18V1665.14H759.91C760.78 1665.14 761.46 1665.57 761.46 1666.51 761.46 1667.16 761.1 1667.56 760.63 1667.77L761.53 1669.5H760.56L759.77 1667.91H759.08V1669.5ZM759.84 1666H759.08V1667.08H759.84C760.16 1667.08 760.53 1666.94 760.53 1666.54 760.53 1666.11 760.17 1666 759.84 1666Z" fill="#31353b"/><path clip-rule="evenodd" d="M576.9 1697.46 561.32 1674.05V1697.46H554.36V1663.52H562.4L577.11 1685.66V1663.52H584.07V1697.46H576.9Z" fill="#31353b" fill-rule="evenodd"/><path clip-rule="evenodd" d="M599.98 1673.8C592.95 1673.8 587.29 1679.03 587.29 1685.95 587.29 1692.87 592.88 1698 599.91 1698 606.94 1698 612.57 1692.81 612.57 1685.81 612.53 1678.89 606.94 1673.8 599.98 1673.8ZM599.91 1691.76C596.74 1691.76 594.18 1689.34 594.18 1685.81 594.18 1682.28 596.7 1679.93 599.84 1679.93 602.98 1679.93 605.57 1682.35 605.57 1685.81 605.61 1689.34 603.08 1691.76 599.91 1691.76Z" fill="#31353b" fill-rule="evenodd"/><path clip-rule="evenodd" d="M630.05 1674.3V1680.94C629.15 1680.76 628.17 1680.76 627.89 1680.76 624.64 1680.76 622.37 1683.03 622.37 1687.32V1697.45H615.73V1674.3H622.15V1677.69H622.22C623.48 1675.06 625.83 1674.05 628.21 1674.05 628.75 1674.05 629.58 1674.16 630.05 1674.3Z" fill="#31353b" fill-rule="evenodd"/><path clip-rule="evenodd" d="M649.42 1663.52V1676.97H649.35C646.97 1674.16 643.76 1673.9 642.43 1673.9 635.79 1673.9 631.32 1679.99 631.32 1685.87 631.32 1692.11 635.61 1697.92 642.32 1697.92 643.87 1697.92 647.33 1697.7 649.53 1694.53H649.6V1697.49H656.16V1663.52H649.42ZM643.87 1691.76C640.7 1691.76 638.14 1689.34 638.14 1685.81 638.14 1682.28 640.7 1679.97 643.87 1679.97 647.04 1679.97 649.6 1682.35 649.6 1685.81 649.56 1689.34 647.04 1691.76 643.87 1691.76Z" fill="#31353b" fill-rule="evenodd"/><path clip-rule="evenodd" d="M670.52 1697.46 658.22 1663.52H665.83L674.63 1689.31 683.46 1663.52H690.93L678.6 1697.46H670.52Z" fill="#31353b" fill-rule="evenodd"/><path clip-rule="evenodd" d="M706.44 1663.52H693.82V1697.46H700.85V1685.49H706.15C713.25 1685.49 718.56 1681.88 718.56 1674.38 718.56 1666.88 713.22 1663.52 706.44 1663.52ZM705.86 1678.96H700.85V1670.16H705.83C708.75 1670.16 711.49 1671.28 711.49 1674.6 711.49 1677.74 708.64 1678.96 705.86 1678.96Z" fill="#31353b" fill-rule="evenodd"/><path clip-rule="evenodd" d="M744.63 1697.46 729.01 1674.05V1697.46H722.09V1663.52H730.13L744.85 1685.66V1663.52H751.81V1697.46H744.63Z" fill="#31353b" fill-rule="evenodd"/><path clip-rule="evenodd" d="M449.45 1713.58C444.18 1706.33 441.08 1697.39 441.08 1687.69 441.08 1663.35 460.77 1643.62 485.08 1643.62 509.39 1643.62 529.08 1663.35 529.08 1687.73 529.08 1697.4 525.98 1706.34 520.71 1713.62L499.58 1679.22 497.52 1682.68 499.58 1692.27 485.05 1667.39 476.11 1682.57 478.2 1692.27 470.59 1679.25 449.46 1713.58H449.45Z" fill="url(#paint5_linear_11_468)" fill-rule="evenodd"/><path clip-rule="evenodd" d="M638.2 522.83H557.95C552.12 522.83 547.39 527.56 547.39 533.39V594.69C547.39 600.52 552.12 605.25 557.95 605.25H638.2C644.03 605.25 648.76 600.52 648.76 594.69V533.39C648.76 530.59 647.65 527.9 645.67 525.92 643.69 523.94 641 522.83 638.2 522.83ZM555.84 533.39C555.84 532.22 556.79 531.28 557.95 531.28H638.2C639.37 531.28 640.31 532.23 640.31 533.39V594.69C640.31 595.86 639.36 596.8 638.2 596.8H557.95C556.78 596.8 555.84 595.85 555.84 594.69V533.39ZM564.29 535.5C566.62 535.5 568.51 537.39 568.51 539.72 568.51 542.05 566.62 543.94 564.29 543.94 561.96 543.94 560.07 542.05 560.07 539.72 560.07 537.39 561.96 535.5 564.29 535.5ZM581.18 539.72C581.18 537.39 579.29 535.5 576.96 535.5 574.63 535.5 572.74 537.39 572.74 539.72 572.74 542.05 574.63 543.94 576.96 543.94 579.29 543.94 581.18 542.05 581.18 539.72ZM589.63 535.5C591.96 535.5 593.85 537.39 593.85 539.72 593.85 542.05 591.96 543.94 589.63 543.94 587.3 543.94 585.41 542.05 585.41 539.72 585.41 537.39 587.3 535.5 589.63 535.5Z" fill="#3c3e45" fill-rule="evenodd"/></svg>
